<?xml version="1.0" encoding="utf-8"?>
<svg xmlns="http://www.w3.org/2000/svg" height="128" width="128" viewBox="0 0 128 128">
  <g>
    <path id="path1" transform="rotate(0,64,64) translate(0.00220864047140878,0) scale(3.99987459575907,3.99987459575907)  " fill="#FFFFFF" d="M11.170988,2.0000026C6.1139962,2.0000026 1.9999944,6.1120075 1.9999944,11.16603 1.9999944,16.219991 6.1139962,20.331996 11.170988,20.331996 16.227981,20.331996 20.341006,16.219991 20.341006,11.16603 20.341006,6.1120075 16.227981,2.0000026 11.170988,2.0000026z M11.170988,0C17.33003,0 22.341001,5.0089787 22.341001,11.16603 22.341001,13.76351 21.449155,16.156669 19.95551,18.055608L19.942527,18.071714 31.999898,30.615001 30.5589,32.001003 18.567029,19.525854 18.476871,19.605846C16.516895,21.303544 13.961804,22.332 11.170988,22.332 5.0119487,22.332 1.6168633E-07,17.32302 0,11.16603 1.6168633E-07,5.0089787 5.0119487,0 11.170988,0z" />
  </g>
</svg>

